RBDS016runT25_grf
version=1
nRows=30
nColumns=19
inDegrees=no
endheader
time	ground_force_r_vx	ground_force_r_vy	ground_force_r_vz	ground_force_r_px	ground_force_r_py	ground_force_r_pz	ground_force_r_mx	ground_force_r_my	ground_force_r_mz	ground_force_l_vx	ground_force_l_vy	ground_force_l_vz	ground_force_l_px	ground_force_l_py	ground_force_l_pz	ground_force_l_mx	ground_force_l_my	ground_force_l_mz
      7.49900000	   -121.54785047	   1656.12805361	    -66.88740114	      2.44214043	      0.00000000	      1.13008067	      0.00000000	     13.62600825	      0.00000000	      0.00000000	      0.00000000	      0.00000000	      0.00000000	      0.00000000	      0.00000000	      0.00000000	      0.00000000	      0.00000000
      7.50000000	   -118.59976251	   1658.14428324	    -68.08655368	      2.44030223	      0.00000000	      1.13035305	      0.00000000	     13.64855601	      0.00000000	      0.00000000	      0.00000000	      0.00000000	      0.00000000	      0.00000000	      0.00000000	      0.00000000	      0.00000000	      0.00000000
      7.50100000	   -115.45968674	   1658.72678984	    -69.22503882	      2.43845996	      0.00000000	      1.13062195	      0.00000000	     13.65596277	      0.00000000	      0.00000000	      0.00000000	      0.00000000	      0.00000000	      0.00000000	      0.00000000	      0.00000000	      0.00000000	      0.00000000
      7.50200000	   -112.31961097	   1659.30929645	    -70.36352395	      2.43661769	      0.00000000	      1.13089085	      0.00000000	     13.66336953	      0.00000000	      0.00000000	      0.00000000	      0.00000000	      0.00000000	      0.00000000	      0.00000000	      0.00000000	      0.00000000	      0.00000000
      7.50300000	   -109.17953520	   1659.89180306	    -71.50200909	      2.43477542	      0.00000000	      1.13115976	      0.00000000	     13.67077629	      0.00000000	      0.00000000	      0.00000000	      0.00000000	      0.00000000	      0.00000000	      0.00000000	      0.00000000	      0.00000000	      0.00000000
      7.50400000	   -105.93979755	   1659.49877019	    -72.58619756	      2.43293358	      0.00000000	      1.13142546	      0.00000000	     13.66856487	      0.00000000	      0.00000000	      0.00000000	      0.00000000	      0.00000000	      0.00000000	      0.00000000	      0.00000000	      0.00000000	      0.00000000
      7.50500000	   -102.65022894	   1658.61796757	    -73.64323769	      2.43109196	      0.00000000	      1.13168957	      0.00000000	     13.66154436	      0.00000000	      0.00000000	      0.00000000	      0.00000000	      0.00000000	      0.00000000	      0.00000000	      0.00000000	      0.00000000	      0.00000000
      7.50600000	    -99.36066034	   1657.73716496	    -74.70027782	      2.42925035	      0.00000000	      1.13195367	      0.00000000	     13.65452384	      0.00000000	      0.00000000	      0.00000000	      0.00000000	      0.00000000	      0.00000000	      0.00000000	      0.00000000	      0.00000000	      0.00000000
      7.50700000	    -96.03439364	   1656.36414739	    -75.72320316	      2.42741011	      0.00000000	      1.13221573	      0.00000000	     13.64300484	      0.00000000	      0.00000000	      0.00000000	      0.00000000	      0.00000000	      0.00000000	      0.00000000	      0.00000000	      0.00000000	      0.00000000
      7.50800000	    -92.63473075	   1654.00669992	    -76.67789893	      2.42557261	      0.00000000	      1.13247369	      0.00000000	     13.62248887	      0.00000000	      0.00000000	      0.00000000	      0.00000000	      0.00000000	      0.00000000	      0.00000000	      0.00000000	      0.00000000	      0.00000000
      7.50900000	    -89.23506787	   1651.64925246	    -77.63259469	      2.42373512	      0.00000000	      1.13273164	      0.00000000	     13.60197289	      0.00000000	      0.00000000	      0.00000000	      0.00000000	      0.00000000	      0.00000000	      0.00000000	      0.00000000	      0.00000000	      0.00000000
      7.51000000	    -85.83540499	   1649.29180499	    -78.58729046	      2.42189763	      0.00000000	      1.13298960	      0.00000000	     13.58145692	      0.00000000	      0.00000000	      0.00000000	      0.00000000	      0.00000000	      0.00000000	      0.00000000	      0.00000000	      0.00000000	      0.00000000
      7.51100000	    -82.36116859	   1645.46172074	    -79.41913268	      2.42006644	      0.00000000	      1.13324003	      0.00000000	     13.54852694	      0.00000000	      0.00000000	      0.00000000	      0.00000000	      0.00000000	      0.00000000	      0.00000000	      0.00000000	      0.00000000	      0.00000000
      7.51200000	    -78.88693218	   1641.63163649	    -80.25097491	      2.41823525	      0.00000000	      1.13349046	      0.00000000	     13.51559696	      0.00000000	      0.00000000	      0.00000000	      0.00000000	      0.00000000	      0.00000000	      0.00000000	      0.00000000	      0.00000000	      0.00000000
      7.51300000	    -75.41269578	   1637.80155224	    -81.08281714	      2.41640406	      0.00000000	      1.13374090	      0.00000000	     13.48266698	      0.00000000	      0.00000000	      0.00000000	      0.00000000	      0.00000000	      0.00000000	      0.00000000	      0.00000000	      0.00000000	      0.00000000
      7.51400000	    -71.90953448	   1633.00429080	    -81.81970316	      2.41457767	      0.00000000	      1.13398539	      0.00000000	     13.44223597	      0.00000000	      0.00000000	      0.00000000	      0.00000000	      0.00000000	      0.00000000	      0.00000000	      0.00000000	      0.00000000	      0.00000000
      7.51500000	    -68.39191073	   1627.72344076	    -82.50911109	      2.41275369	      0.00000000	      1.13422691	      0.00000000	     13.39805443	      0.00000000	      0.00000000	      0.00000000	      0.00000000	      0.00000000	      0.00000000	      0.00000000	      0.00000000	      0.00000000	      0.00000000
      7.51600000	    -64.87428699	   1622.44259072	    -83.19851901	      2.41092970	      0.00000000	      1.13446843	      0.00000000	     13.35387289	      0.00000000	      0.00000000	      0.00000000	      0.00000000	      0.00000000	      0.00000000	      0.00000000	      0.00000000	      0.00000000	      0.00000000
      7.51700000	    -61.35110377	   1616.69137517	    -83.83441387	      2.40910800	      0.00000000	      1.13470653	      0.00000000	     13.30633466	      0.00000000	      0.00000000	      0.00000000	      0.00000000	      0.00000000	      0.00000000	      0.00000000	      0.00000000	      0.00000000	      0.00000000
      7.51800000	    -57.81680162	   1609.99942857	    -84.36328259	      2.40729088	      0.00000000	      1.13493777	      0.00000000	     13.25208304	     -0.00000000	      0.00000000	      0.00000000	      0.00000000	      0.00000000	      0.00000000	      0.00000000	      0.00000000	      0.00000000	      0.00000000
      7.51900000	    -54.28249947	   1603.30748197	    -84.89215132	      2.40547375	      0.00000000	      1.13516901	      0.00000000	     13.19783142	     -0.00000000	      0.00000000	      0.00000000	      0.00000000	      0.00000000	      0.00000000	      0.00000000	      0.00000000	      0.00000000	      0.00000000
      7.52000000	    -50.74819732	   1596.61553538	    -85.42102004	      2.40365663	      0.00000000	      1.13540025	      0.00000000	     13.14357981	     -0.00000000	      0.00000000	      0.00000000	      0.00000000	      0.00000000	      0.00000000	      0.00000000	      0.00000000	      0.00000000	      0.00000000
      7.52100000	    -47.21959308	   1588.56932642	    -85.77326163	      2.40184488	      0.00000000	      1.13561985	      0.00000000	     13.08040852	     -0.00000000	      0.00000000	      0.00000000	      0.00000000	      0.00000000	      0.00000000	      0.00000000	      0.00000000	      0.00000000	      0.00000000
      7.52200000	    -43.69098883	   1580.52311747	    -86.12550322	      2.40003313	      0.00000000	      1.13583946	      0.00000000	     13.01723723	     -0.00000000	      0.00000000	      0.00000000	      0.00000000	      0.00000000	      0.00000000	      0.00000000	      0.00000000	      0.00000000	      0.00000000
      7.52300000	    -40.16238459	   1572.47690852	    -86.47774481	      2.39822138	      0.00000000	      1.13605907	      0.00000000	     12.95406594	     -0.00000000	      0.00000000	      0.00000000	      0.00000000	      0.00000000	      0.00000000	      0.00000000	      0.00000000	      0.00000000	      0.00000000
      7.52400000	    -36.64986976	   1563.57641543	    -86.70320153	      2.39641153	      0.00000000	      1.13627006	      0.00000000	     12.88567089	     -0.00000000	      0.00000000	      0.00000000	      0.00000000	      0.00000000	      0.00000000	      0.00000000	      0.00000000	      0.00000000	      0.00000000
      7.52500000	    -33.14539964	   1554.24878027	    -86.86526582	      2.39460263	      0.00000000	      1.13647673	      0.00000000	     12.81466396	     -0.00000000	      0.00000000	      0.00000000	      0.00000000	      0.00000000	      0.00000000	      0.00000000	      0.00000000	      0.00000000	      0.00000000
      7.52600000	    -29.64092951	   1544.92114511	    -87.02733011	      2.39279373	      0.00000000	      1.13668341	      0.00000000	     12.74365704	     -0.00000000	      0.00000000	      0.00000000	      0.00000000	      0.00000000	      0.00000000	      0.00000000	      0.00000000	      0.00000000	      0.00000000
      7.52700000	    -26.14953339	   1535.19543629	    -87.12249384	      2.39098466	      0.00000000	      1.13688537	      0.00000000	     12.67037077	     -0.00000000	      0.00000000	      0.00000000	      0.00000000	      0.00000000	      0.00000000	      0.00000000	      0.00000000	      0.00000000	      0.00000000
      7.52800000	    -22.68428529	   1524.67358013	    -87.08385644	      2.38917523	      0.00000000	      1.13707790	      0.00000000	     12.59252584	     -0.00000000	      0.00000000	      0.00000000	      0.00000000	      0.00000000	      0.00000000	      0.00000000	      0.00000000	      0.00000000	      0.00000000
